<mxfile host="app.diagrams.net" modified="2024-02-22T10:52:15.088Z" agent="Mozilla/5.0 (Windows NT 10.0; Win64; x64) AppleWebKit/537.36 (KHTML, like Gecko) Chrome/121.0.0.0 Safari/537.36" version="22.0.0" etag="cyxhnTk7l3RhJYp8G1fY" type="github">
  <diagram name="Trang-1" id="Hu4XadrdaI0fVoW0vSgP">
    <mxGraphModel>
      <root>
        <mxCell id="0" />
        <mxCell id="1" parent="0" />
      </root>
    </mxGraphModel>
  </diagram>
</mxfile>
